<svg width="305" height="305" viewBox="0 0 305 305" fill="none" xmlns="http://www.w3.org/2000/svg">
<g clip-path="url(#clip0_1_2)">
<path d="M0 152.5C0 68.2766 68.2766 0 152.5 0C236.723 0 305 68.2766 305 152.5C305 236.723 236.723 305 152.5 305C68.2766 305 0 236.723 0 152.5Z" fill="white"/>
<path d="M335.5 -30.5H-30.5V335.5H335.5V-30.5Z" fill="white"/>
<path d="M335.5 -30.5H-30.5V335.5H335.5V-30.5Z" fill="#020B12"/>
<path d="M335.5 -30.5H-30.5V335.5H335.5V-30.5Z" stroke="black"/>
<g filter="url(#filter0_d_1_2)">
<path d="M28.4005 139.505L29.9706 137.15L103.242 108.626L108.999 123.542L107.69 125.636L46.7182 148.664V149.972L107.952 172.477L104.288 186.869L101.933 188.701L28.4005 160.701V139.505ZM128.482 223.505H110.426L108.856 221.411L149.155 67.5421H166.949L169.042 70.1589L128.482 223.505ZM281.285 139.505V160.701L207.752 188.701L205.397 186.869L201.733 172.477L262.967 149.972V148.664L201.995 125.636L200.687 123.542L206.444 108.626L279.715 137.15L281.285 139.505Z" fill="url(#paint0_linear_1_2)"/>
</g>
</g>
<defs>
<filter id="filter0_d_1_2" x="24.4005" y="67.5421" width="260.884" height="163.963" filterUnits="userSpaceOnUse" color-interpolation-filters="sRGB">
<feFlood flood-opacity="0" result="BackgroundImageFix"/>
<feColorMatrix in="SourceAlpha" type="matrix" values="0 0 0 0 0 0 0 0 0 0 0 0 0 0 0 0 0 0 127 0" result="hardAlpha"/>
<feOffset dy="4"/>
<feGaussianBlur stdDeviation="2"/>
<feComposite in2="hardAlpha" operator="out"/>
<feColorMatrix type="matrix" values="0 0 0 0 0 0 0 0 0 0 0 0 0 0 0 0 0 0 0.25 0"/>
<feBlend mode="normal" in2="BackgroundImageFix" result="effect1_dropShadow_1_2"/>
<feBlend mode="normal" in="SourceGraphic" in2="effect1_dropShadow_1_2" result="shape"/>
</filter>
<linearGradient id="paint0_linear_1_2" x1="114.18" y1="-25.1215" x2="305.651" y2="167.206" gradientUnits="userSpaceOnUse">
<stop stop-color="#C6E2FA"/>
<stop offset="1" stop-color="#083991"/>
</linearGradient>
<clipPath id="clip0_1_2">
<path d="M0 152.5C0 68.2766 68.2766 0 152.5 0C236.723 0 305 68.2766 305 152.5C305 236.723 236.723 305 152.5 305C68.2766 305 0 236.723 0 152.5Z" fill="white"/>
</clipPath>
</defs>
</svg>
