<?xml version="1.0" standalone="no"?>
<!DOCTYPE svg PUBLIC "-//W3C//DTD SVG 20010904//EN"
 "http://www.w3.org/TR/2001/REC-SVG-20010904/DTD/svg10.dtd">
<svg version="1.0" xmlns="http://www.w3.org/2000/svg"
 width="150.000000pt" height="150.000000pt" viewBox="0 0 150.000000 150.000000"
 preserveAspectRatio="xMidYMid meet">

<g transform="translate(0.000000,150.000000) scale(0.100000,-0.100000)"
fill="#5082be" stroke="none">
<path d="M577 1151 c-216 -177 -212 -173 -145 -151 29 10 84 21 123 26 61 6
68 5 57 -8 -7 -9 -37 -18 -70 -21 -183 -20 -302 -110 -273 -208 20 -68 112
-130 230 -155 36 -7 69 -14 73 -14 3 0 20 24 36 53 37 66 125 148 195 181 109
51 246 58 301 15 53 -41 23 -126 -60 -175 -62 -37 -160 -72 -225 -80 -39 -5
-48 -9 -34 -14 11 -4 -6 -7 -40 -6 l-60 1 -3 -38 c-7 -78 55 -127 159 -127
175 0 351 177 352 353 0 91 -43 176 -108 209 -11 6 -4 -4 15 -21 l35 -31 -38
24 c-21 14 -48 28 -59 32 -17 5 -18 8 -7 16 11 7 9 8 -5 4 -11 -4 -55 -1 -98
5 -73 11 -83 10 -141 -11 -87 -32 -162 -84 -213 -149 -43 -55 -84 -143 -84
-181 0 -11 -7 -20 -15 -20 -8 0 -15 5 -15 11 0 5 3 8 8 6 4 -3 8 14 8 37 4
132 158 298 317 341 65 17 187 18 232 1 15 -6 13 -1 -8 18 -16 15 -32 24 -36
22 -4 -3 -52 31 -107 75 -96 78 -156 132 -109 99 11 -8 43 -33 70 -56 84 -68
151 -119 135 -102 -21 23 -214 178 -220 177 -3 0 -81 -62 -173 -138z m1 -168
c-10 -2 -26 -2 -35 0 -10 3 -2 5 17 5 19 0 27 -2 18 -5z m149 -399 c-3 -3 -12
-4 -19 -1 -8 3 -5 6 6 6 11 1 17 -2 13 -5z"/>
<path d="M1190 916 c0 -2 7 -20 15 -39 23 -57 19 -161 -10 -231 -13 -33 -23
-61 -22 -62 1 -1 49 38 107 87 99 83 130 118 99 107 -15 -5 -117 70 -154 114
-21 25 -35 35 -35 24z"/>
<path d="M1255 875 c53 -48 115 -98 115 -91 0 2 -35 32 -77 66 -43 34 -60 45
-38 25z"/>
<path d="M177 824 c-38 -31 -67 -57 -65 -59 2 -1 146 -123 322 -269 l318 -267
57 48 c31 26 72 60 91 77 l35 29 -35 -7 c-162 -33 -227 -29 -280 15 l-25 21
27 -16 c40 -24 44 -20 8 10 -43 37 -60 74 -60 133 0 39 -3 49 -14 45 -19 -7
-126 21 -176 46 -48 24 -112 79 -105 90 3 4 -3 22 -11 40 -11 21 -15 47 -11
76 2 24 2 44 -2 44 -3 0 -37 -26 -74 -56z"/>
<path d="M862 840 c-81 -41 -139 -110 -166 -197 -7 -21 -5 -22 26 -17 132 22
198 47 253 95 58 52 78 118 38 133 -7 3 -12 2 -9 -2 2 -4 -12 -6 -32 -3 l-37
5 30 7 30 7 -36 1 c-22 1 -59 -11 -97 -29z"/>
<path d="M56 741 c-4 -5 76 -79 176 -163 101 -85 256 -216 346 -291 90 -75
168 -137 173 -137 7 0 564 460 698 577 3 2 0 7 -5 12 -5 6 -144 -104 -348
-275 -186 -156 -341 -284 -343 -284 -3 0 -152 123 -332 273 -393 328 -358 300
-365 288z"/>
<path d="M295 702 c11 -13 29 -28 40 -34 21 -11 18 -8 -30 32 -29 24 -29 24
-10 2z"/>
<path d="M374 646 c11 -9 24 -16 30 -16 12 0 7 5 -24 19 -24 11 -24 11 -6 -3z"/>
<path d="M528 593 c7 -3 16 -2 19 1 4 3 -2 6 -13 5 -11 0 -14 -3 -6 -6z"/>
</g>
</svg>
